# xmcd
#
# Track frame offsets: 
#        150
#        12530
#        25995
#        38125
#        51493
#        63918
#        76458
#        90298
#        103225
#        117060
#        131653
#        144000
#
# Disc length: 2115 seconds
#
# Revision: 0
# Processed by: cddbd v1.4PL0 Copyright (c) Steve Scherf et al.
# Submitted via: ExactAudioCopy v0.90b2
#
DISCID=9908410c
DTITLE=Gene Autry - Back in the Saddle Again
DYEAR=1977
DGENRE=Country
TTITLE0=Mississippi Valley Blues
TTITLE1=Why Don't You Come Back to Me
TTITLE2=Back to Old Smoky Mountain
TTITLE3=Moonlight and Skies
TTITLE4=Way Out West in Texas
TTITLE5=Back in the Saddle Again
TTITLE6=The Dying Cowgirl
TTITLE7=My Old Saddle Pal
TTITLE8=Riding the Range
TTITLE9=The End of the Trail
TTITLE10=Ole Faithful
TTITLE11=The Last Round-up
EXTD=Sony Music Special Product  A24302\nCompilation of previously rel
EXTD=eased recordings
EXTT0=
EXTT1=
EXTT2=
EXTT3=
EXTT4=
EXTT5=
EXTT6=
EXTT7=
EXTT8=
EXTT9=
EXTT10=
EXTT11=
PLAYORDER=
